<svg xmlns="http://www.w3.org/2000/svg" viewBox="0 0 87.83 49.78"><defs><style>.cls-1{fill:#159cd8;}.cls-2{fill:#169dd9;}.cls-3{fill:#231f20;}.cls-4{fill:#595859;}</style></defs><title>GWS_logo</title><g id="Layer_2" data-name="Layer 2"><g id="Isolation_Mode" data-name="Isolation Mode"><g id="Logo_Text" data-name="Logo+Text"><g id="logo_GWS"><path class="cls-1" d="M21.33,16.51V27.84a8.72,8.72,0,0,1-8.69,8.69h-4A8.71,8.71,0,0,1,0,27.84V27.1a74.66,74.66,0,0,1,6-5.51v5.52a4.16,4.16,0,0,0,4.16,4.17h1a4.17,4.17,0,0,0,4.18-4.17V20.82h-3.9a.8.8,0,0,1-.8-.79V18.64a32.46,32.46,0,0,1,7.72-2.93h2.17A.8.8,0,0,1,21.33,16.51Z"/><path class="cls-1" d="M62.4,11.16V27.4a8.71,8.71,0,0,1-8.69,8.69H49.77A8.61,8.61,0,0,1,44.08,34a8.68,8.68,0,0,1-5.7,2.14H34.44a8.71,8.71,0,0,1-8.69-8.69V14.22l6-.72V26.67a4.18,4.18,0,0,0,4.17,4.18h1a4.18,4.18,0,0,0,4.17-4.18v-14q2.51-.2,6-.42V26.67a4.18,4.18,0,0,0,4.17,4.18h1a4.18,4.18,0,0,0,4.17-4.18V11.56Z"/><path class="cls-1" d="M86.1,18.8a6.83,6.83,0,0,0-4.26-2.27l-2.22-.47-4.39-.91-.35-.07a3.34,3.34,0,0,1-2.38-3.32V10.52l-6,.38v2.19a6.89,6.89,0,0,0,4.69,6.53l1.3.27.28.06,2,.4s4.31.91,4.84,1a3.29,3.29,0,0,1,2.25,3.29v2.46a4.17,4.17,0,0,1-4.16,4.17h-1a4.17,4.17,0,0,1-4.18-4.17V25.83a.86.86,0,0,0-.85-.86H67.37a.87.87,0,0,0-.86.86v2a8.71,8.71,0,0,0,8.69,8.69h3.94a8.71,8.71,0,0,0,8.69-8.69V23.38A6.93,6.93,0,0,0,86.1,18.8Zm-6.49,2.56Z"/><path class="cls-2" d="M79.61,21.36Z"/><g id="GWS"><path class="cls-3" d="M31.74,1.93V13.5l-6,.72V1.94A1.43,1.43,0,0,1,27.17.52h3.16A1.41,1.41,0,0,1,31.74,1.93Z"/><path class="cls-3" d="M47.07,1.63V12.21q-3.48.22-6,.42v-11A1.11,1.11,0,0,1,42.18.52H46A1.11,1.11,0,0,1,47.07,1.63Z"/><path class="cls-3" d="M62.4,1.63v9.53l-6,.4V1.63A1.11,1.11,0,0,1,57.51.52h3.78A1.11,1.11,0,0,1,62.4,1.63Z"/><path class="cls-3" d="M11.44,15.71h6.92a32.46,32.46,0,0,0-7.72,2.93V16.51A.8.8,0,0,1,11.44,15.71Z"/><path class="cls-3" d="M21.33,8.69v3.48a.8.8,0,0,1-.8.79h-4.4a.79.79,0,0,1-.79-.79V9.42a4.18,4.18,0,0,0-4.18-4.17h-1A4.17,4.17,0,0,0,6,9.42V21.59A74.66,74.66,0,0,0,0,27.1V8.69A8.71,8.71,0,0,1,8.69,0h4A8.72,8.72,0,0,1,21.33,8.69Z"/><path class="cls-3" d="M87.83,8.69v.92l-6,.34V9.42a4.17,4.17,0,0,0-4.16-4.17h-1A4.18,4.18,0,0,0,72.5,9.42v1.1l-6,.38V8.69a8.87,8.87,0,0,1,2.56-6.14A8.67,8.67,0,0,1,75.2,0h3.94A8.71,8.71,0,0,1,87.83,8.69Z"/></g><path class="cls-1" d="M87.83,9.61v.94a1,1,0,0,1-1,1h-4a1,1,0,0,1-1-1V10Z"/></g><path class="cls-4" d="M3.62,49.78a3,3,0,0,1-1.25-.25,2.93,2.93,0,0,1-1-.69,3.15,3.15,0,0,1-.65-1.05,3.75,3.75,0,0,1,0-2.64,3,3,0,0,1,.66-1,3.17,3.17,0,0,1,1-.7,3.22,3.22,0,0,1,1.26-.24,3.27,3.27,0,0,1,1.22.22,2.46,2.46,0,0,1,1,.67l-.27.32a2.44,2.44,0,0,0-.87-.6,2.8,2.8,0,0,0-1-.17,2.74,2.74,0,0,0-1.08.21,2.45,2.45,0,0,0-.87.61,2.78,2.78,0,0,0-.58.91,3.35,3.35,0,0,0,0,2.28,2.88,2.88,0,0,0,.58.91,2.58,2.58,0,0,0,.87.61,2.74,2.74,0,0,0,1.08.21,2.83,2.83,0,0,0,1-.18,2.33,2.33,0,0,0,.88-.58l.25.36a2.63,2.63,0,0,1-1,.63A3.39,3.39,0,0,1,3.62,49.78Zm1.73-.89V46.5h.43v2.44Z"/><path class="cls-4" d="M7.56,49.73V42.81H8v6.92Z"/><path class="cls-4" d="M11.57,49.77a2.11,2.11,0,0,1-1.15-.32,2.24,2.24,0,0,1-.8-.87,2.69,2.69,0,0,1-.3-1.28A2.63,2.63,0,0,1,9.62,46a2.34,2.34,0,0,1,.8-.88,2.11,2.11,0,0,1,1.15-.31,2.13,2.13,0,0,1,1.15.31,2.26,2.26,0,0,1,.8.88,2.63,2.63,0,0,1,.29,1.28,2.68,2.68,0,0,1-.29,1.28,2.17,2.17,0,0,1-.8.87A2.14,2.14,0,0,1,11.57,49.77Zm0-.42a1.68,1.68,0,0,0,.93-.26,1.73,1.73,0,0,0,.64-.72,2.53,2.53,0,0,0,0-2.15,1.73,1.73,0,0,0-.64-.72,1.75,1.75,0,0,0-.93-.25,1.71,1.71,0,0,0-.93.25,1.73,1.73,0,0,0-.64.72,2.53,2.53,0,0,0,0,2.15,1.73,1.73,0,0,0,.64.72A1.63,1.63,0,0,0,11.57,49.35Z"/><path class="cls-4" d="M15.15,49.73V42.81h.43v3.63l-.09.85.07.85v1.59Zm2.25,0a2,2,0,0,1-1.07-.3,2.07,2.07,0,0,1-.76-.86,3.25,3.25,0,0,1,0-2.64,2.07,2.07,0,0,1,.76-.84,2,2,0,0,1,1.07-.3,2.07,2.07,0,0,1,1.14.31,2.24,2.24,0,0,1,.8.87,2.79,2.79,0,0,1,.28,1.29,2.84,2.84,0,0,1-.28,1.29,2.24,2.24,0,0,1-.8.87A2.07,2.07,0,0,1,17.4,49.77Zm0-.42a1.68,1.68,0,0,0,.93-.26,1.82,1.82,0,0,0,.65-.72,2.63,2.63,0,0,0,0-2.15,1.82,1.82,0,0,0-.65-.72,1.75,1.75,0,0,0-.93-.25,1.71,1.71,0,0,0-.93.25,1.73,1.73,0,0,0-.64.72,2.53,2.53,0,0,0,0,2.15,1.73,1.73,0,0,0,.64.72A1.63,1.63,0,0,0,17.38,49.35Z"/><path class="cls-4" d="M22.15,49.77a2.06,2.06,0,0,1-.86-.17,1.34,1.34,0,0,1-.56-.49,1.37,1.37,0,0,1-.19-.73,1.54,1.54,0,0,1,.15-.68,1.27,1.27,0,0,1,.53-.49,2.16,2.16,0,0,1,1-.19h1.66v.36H22.22a1.37,1.37,0,0,0-1,.28,1,1,0,0,0,0,1.45,1.42,1.42,0,0,0,.92.28,1.65,1.65,0,0,0,1-.28,1.58,1.58,0,0,0,.58-.81l.13.31a1.74,1.74,0,0,1-.62.85A1.84,1.84,0,0,1,22.15,49.77Zm1.62,0V48.62l0-.16V46.63a1.43,1.43,0,0,0-.34-1,1.31,1.31,0,0,0-1-.35,2,2,0,0,0-.86.17,2.21,2.21,0,0,0-.69.44l-.21-.33a2.24,2.24,0,0,1,.81-.51,2.72,2.72,0,0,1,1-.18,1.74,1.74,0,0,1,1.28.45,1.88,1.88,0,0,1,.45,1.37v3.08Z"/><path class="cls-4" d="M26,49.73V42.81h.43v6.92Z"/><path class="cls-4" d="M31.9,49.73l-2-6.53h.46l1.95,6.24H32l2-6.24h.42l2,6.24h-.22l2-6.24h.43l-2,6.53h-.46l-1.93-6h.11l-1.93,6Z"/><path class="cls-4" d="M39.87,43.68a.34.34,0,0,1-.25-.11.38.38,0,0,1-.11-.26.37.37,0,0,1,.11-.27.32.32,0,0,1,.25-.12.34.34,0,0,1,.25.11.36.36,0,0,1,.1.27.39.39,0,0,1-.1.27A.34.34,0,0,1,39.87,43.68Zm-.22,6V44.86h.43v4.87Z"/><path class="cls-4" d="M43.63,49.77a2.06,2.06,0,0,1-1.13-.31,2.17,2.17,0,0,1-.8-.87,2.72,2.72,0,0,1-.29-1.29A2.67,2.67,0,0,1,41.7,46a2.17,2.17,0,0,1,.8-.87,2.06,2.06,0,0,1,1.13-.31,2,2,0,0,1,1.07.3,2.07,2.07,0,0,1,.76.84,3.25,3.25,0,0,1,0,2.64,2,2,0,0,1-1.83,1.16Zm0-.42a1.63,1.63,0,0,0,.93-.26,1.73,1.73,0,0,0,.64-.72,2.53,2.53,0,0,0,0-2.15,1.73,1.73,0,0,0-.64-.72,1.84,1.84,0,0,0-1.85,0,1.82,1.82,0,0,0-.65.72,2.63,2.63,0,0,0,0,2.15,1.82,1.82,0,0,0,.65.72A1.62,1.62,0,0,0,43.65,49.35Zm1.82.38V48.14l.08-.85-.09-.85V42.81h.43v6.92Z"/><path class="cls-4" d="M49.53,49.77a2.29,2.29,0,0,1-1.2-.32,2.22,2.22,0,0,1-.82-.87,2.68,2.68,0,0,1-.29-1.28A2.74,2.74,0,0,1,47.5,46a2.19,2.19,0,0,1,.77-.88,2,2,0,0,1,1.1-.31,2.09,2.09,0,0,1,1.1.3,2.23,2.23,0,0,1,.76.87,2.74,2.74,0,0,1,.28,1.28v.06a.17.17,0,0,0,0,.07h-4v-.36h3.74l-.17.17a2.25,2.25,0,0,0-.22-1,1.79,1.79,0,0,0-.62-.71,1.71,1.71,0,0,0-1.78,0,1.79,1.79,0,0,0-.62.71,2.29,2.29,0,0,0-.22,1v.09a2.27,2.27,0,0,0,.24,1.06,1.86,1.86,0,0,0,.68.71,1.8,1.8,0,0,0,1,.26,1.91,1.91,0,0,0,.8-.17,1.58,1.58,0,0,0,.64-.51l.25.31a1.85,1.85,0,0,1-.74.59A2.36,2.36,0,0,1,49.53,49.77Z"/><path class="cls-4" d="M56.78,49.78a3.2,3.2,0,0,1-1.27-.25,2.33,2.33,0,0,1-.93-.64l.2-.35a2.5,2.5,0,0,0,.85.58,2.78,2.78,0,0,0,1.14.24,2.46,2.46,0,0,0,1-.17,1.28,1.28,0,0,0,.57-.46,1.15,1.15,0,0,0,.19-.65,1,1,0,0,0-.21-.67,1.47,1.47,0,0,0-.54-.4,4.8,4.8,0,0,0-.73-.25l-.8-.22a3.81,3.81,0,0,1-.74-.3,1.47,1.47,0,0,1-.54-.51,1.54,1.54,0,0,1-.2-.84A1.72,1.72,0,0,1,55,44a1.6,1.6,0,0,1,.7-.63,2.66,2.66,0,0,1,1.21-.24,3.11,3.11,0,0,1,1,.16,2.59,2.59,0,0,1,.83.42l-.17.39a2.61,2.61,0,0,0-.81-.42,2.82,2.82,0,0,0-.84-.13,2.37,2.37,0,0,0-1,.17,1.22,1.22,0,0,0-.56.48,1.2,1.2,0,0,0-.18.65,1,1,0,0,0,.2.67,1.34,1.34,0,0,0,.54.41,5.82,5.82,0,0,0,.74.25l.8.22a3.61,3.61,0,0,1,.73.3,1.52,1.52,0,0,1,.54.5,1.47,1.47,0,0,1,.21.82,1.63,1.63,0,0,1-1,1.49A2.67,2.67,0,0,1,56.78,49.78Z"/><path class="cls-4" d="M62.12,49.77a2.29,2.29,0,0,1-1.2-.32,2.13,2.13,0,0,1-.81-.87,2.69,2.69,0,0,1-.3-1.28A2.74,2.74,0,0,1,60.09,46a2.19,2.19,0,0,1,.77-.88,2,2,0,0,1,1.1-.31,2.06,2.06,0,0,1,1.1.3,2.15,2.15,0,0,1,.76.87,2.74,2.74,0,0,1,.28,1.28v.06s0,0,0,.07h-4v-.36h3.73l-.17.17a2.25,2.25,0,0,0-.22-1,1.85,1.85,0,0,0-.61-.71,1.73,1.73,0,0,0-1.79,0,1.79,1.79,0,0,0-.62.71,2.29,2.29,0,0,0-.22,1v.09a2.16,2.16,0,0,0,.25,1.06,1.76,1.76,0,0,0,.67.71,1.8,1.8,0,0,0,1,.26,2,2,0,0,0,.81-.17,1.55,1.55,0,0,0,.63-.51l.25.31a1.85,1.85,0,0,1-.74.59A2.32,2.32,0,0,1,62.12,49.77Z"/><path class="cls-4" d="M65.44,49.73V44.86h.41V46.2l0-.15a1.77,1.77,0,0,1,.63-.91,1.9,1.9,0,0,1,1.12-.31v.45h-.1a1.43,1.43,0,0,0-1.17.51,2.17,2.17,0,0,0-.42,1.42v2.53Z"/><path class="cls-4" d="M69,43.68a.33.33,0,0,1-.25-.11.38.38,0,0,1-.11-.26.37.37,0,0,1,.11-.27.3.3,0,0,1,.25-.12.34.34,0,0,1,.25.11.41.41,0,0,1,.1.27.45.45,0,0,1-.1.27A.34.34,0,0,1,69,43.68Zm-.22,6V44.86h.43v4.87Z"/><path class="cls-4" d="M72.13,49.73l-2-4.87h.46l1.89,4.61h-.21l1.91-4.61h.44l-2,4.87Z"/><path class="cls-4" d="M77.24,49.77a2.23,2.23,0,0,1-2-1.19,2.69,2.69,0,0,1-.3-1.28A2.74,2.74,0,0,1,75.2,46a2.27,2.27,0,0,1,.77-.88,2,2,0,0,1,1.1-.31,2,2,0,0,1,1.1.3,2.25,2.25,0,0,1,.77.87,2.87,2.87,0,0,1,.28,1.28s0,0,0,.06v.07h-4v-.36H79l-.18.17a2.13,2.13,0,0,0-.22-1,1.77,1.77,0,0,0-.61-.71,1.73,1.73,0,0,0-1.79,0,1.77,1.77,0,0,0-.61.71,2.29,2.29,0,0,0-.23,1v.09a2.16,2.16,0,0,0,.25,1.06,1.82,1.82,0,0,0,1.65,1,2,2,0,0,0,.81-.17,1.55,1.55,0,0,0,.63-.51l.25.31a1.82,1.82,0,0,1-.73.59A2.39,2.39,0,0,1,77.24,49.77Z"/><path class="cls-4" d="M81.69,49.77a3,3,0,0,1-1-.18,2,2,0,0,1-.75-.44l.2-.38a2.33,2.33,0,0,0,.68.42,2.6,2.6,0,0,0,.93.17,1.63,1.63,0,0,0,1-.25.81.81,0,0,0,.31-.66.68.68,0,0,0-.16-.48,1.08,1.08,0,0,0-.43-.26,5.94,5.94,0,0,0-.58-.16l-.64-.13a2.48,2.48,0,0,1-.58-.21,1.24,1.24,0,0,1-.43-.39,1.35,1.35,0,0,1,0-1.33,1.36,1.36,0,0,1,.57-.48,2.19,2.19,0,0,1,.94-.18,2.74,2.74,0,0,1,.85.13,2,2,0,0,1,.7.34l-.2.38a1.72,1.72,0,0,0-.64-.34,2.44,2.44,0,0,0-.71-.1,1.41,1.41,0,0,0-1,.26.8.8,0,0,0-.31.65.69.69,0,0,0,.16.49,1,1,0,0,0,.43.28,3.05,3.05,0,0,0,.58.16l.64.13a2.48,2.48,0,0,1,.58.21,1.13,1.13,0,0,1,.43.38,1.1,1.1,0,0,1,.16.64,1.27,1.27,0,0,1-.2.7,1.42,1.42,0,0,1-.6.46A2.55,2.55,0,0,1,81.69,49.77Z"/></g></g></g></svg>