<svg xmlns="http://www.w3.org/2000/svg" viewBox="0 0 112.19 46.66"><defs><style>.cls-1{fill:#169dd9;}.cls-2{fill:#231f20;}</style></defs><title>GWS_Logo-no text</title><g id="Layer_2" data-name="Layer 2"><g id="Layer_1_copy_3" data-name="Layer 1 copy 3"><g id="GWS"><path class="cls-1" d="M27.24,21.09V35.56a11.13,11.13,0,0,1-11.1,11.1h-5A11.13,11.13,0,0,1,0,35.56v-.94a92.27,92.27,0,0,1,7.66-7v7.05A5.32,5.32,0,0,0,13,40h1.28a5.33,5.33,0,0,0,5.33-5.33v-8h-5a1,1,0,0,1-1-1V23.81c3.37-2.09,9.14-3.57,9.86-3.74h2.77A1,1,0,0,1,27.24,21.09Z"/><path class="cls-1" d="M79.7,14.26V35A11.13,11.13,0,0,1,68.6,46.1h-5a11,11,0,0,1-7.27-2.74A11.06,11.06,0,0,1,49,46.1H44A11.13,11.13,0,0,1,32.89,35V18.17l7.65-.93V34.07a5.33,5.33,0,0,0,5.33,5.33h1.28a5.33,5.33,0,0,0,5.32-5.33V16.13l7.65-.54V34.07a5.33,5.33,0,0,0,5.33,5.33h1.28a5.33,5.33,0,0,0,5.32-5.33V14.77Z"/><path class="cls-1" d="M110,24a8.73,8.73,0,0,0-5.44-2.91l-2.84-.59-5.6-1.17a3.58,3.58,0,0,1-.45-.09,4.26,4.26,0,0,1-3-4.24V13.44L85,13.92v2.8a8.81,8.81,0,0,0,6,8.34l1.66.35.35.07,2.52.52,6.18,1.28a4.21,4.21,0,0,1,2.88,4.21v3.14A5.35,5.35,0,0,1,99.22,40H97.94a5.33,5.33,0,0,1-5.33-5.33V33a1.09,1.09,0,0,0-1.09-1.1H86.05A1.09,1.09,0,0,0,85,33v2.56a11.13,11.13,0,0,0,11.1,11.1h5a11.13,11.13,0,0,0,11.1-11.1V29.87A8.82,8.82,0,0,0,110,24Zm-8.29,3.27c.11,0,0,0,0,0Z"/><path class="cls-1" d="M101.69,27.29c.11,0,0,0,0,0Z"/><g id="GWS-2" data-name="GWS"><path class="cls-2" d="M40.54,2.08V17.24l-7.65.93V2.08A1.42,1.42,0,0,1,34.3.66h4.83A1.42,1.42,0,0,1,40.54,2.08Z"/><path class="cls-2" d="M60.12,2.08V15.59l-7.65.54v-14A1.42,1.42,0,0,1,53.88.66h4.83A1.42,1.42,0,0,1,60.12,2.08Z"/><path class="cls-2" d="M79.7,2.08V14.26l-7.65.51V2.08A1.42,1.42,0,0,1,73.46.66h4.83A1.42,1.42,0,0,1,79.7,2.08Z"/><path class="cls-2" d="M14.61,20.07h8.84c-.72.17-6.49,1.65-9.86,3.74V21.09A1,1,0,0,1,14.61,20.07Z"/><path class="cls-2" d="M27.24,11.1v4.44a1,1,0,0,1-1,1H20.6a1,1,0,0,1-1-1V12a5.33,5.33,0,0,0-5.33-5.32H13A5.32,5.32,0,0,0,7.66,12V27.58a92.27,92.27,0,0,0-7.66,7V11.1A11.14,11.14,0,0,1,11.1,0h5A11.14,11.14,0,0,1,27.24,11.1Z"/><path class="cls-2" d="M112.19,11.1v1.17l-7.65.44V12a5.32,5.32,0,0,0-5.32-5.32H97.94A5.33,5.33,0,0,0,92.61,12v1.41L85,13.92V11.1a11.36,11.36,0,0,1,3.26-7.84A11.08,11.08,0,0,1,96.06,0h5A11.13,11.13,0,0,1,112.19,11.1Z"/></g><path class="cls-1" d="M112.19,12.27v1.21a1.27,1.27,0,0,1-1.27,1.27h-5.11a1.27,1.27,0,0,1-1.27-1.27v-.77Z"/></g><g id="GWS-3" data-name="GWS"><path class="cls-1" d="M27.24,21.09V35.56a11.13,11.13,0,0,1-11.1,11.1h-5A11.13,11.13,0,0,1,0,35.56v-.94a92.27,92.27,0,0,1,7.66-7v7.05A5.32,5.32,0,0,0,13,40h1.28a5.33,5.33,0,0,0,5.33-5.33v-8h-5a1,1,0,0,1-1-1V23.81c3.37-2.09,9.14-3.57,9.86-3.74h2.77A1,1,0,0,1,27.24,21.09Z"/><path class="cls-1" d="M79.7,14.26V35A11.13,11.13,0,0,1,68.6,46.1h-5a11,11,0,0,1-7.27-2.74A11.06,11.06,0,0,1,49,46.1H44A11.13,11.13,0,0,1,32.89,35V18.17l7.65-.93V34.07a5.33,5.33,0,0,0,5.33,5.33h1.28a5.33,5.33,0,0,0,5.32-5.33V16.13l7.65-.54V34.07a5.33,5.33,0,0,0,5.33,5.33h1.28a5.33,5.33,0,0,0,5.32-5.33V14.77Z"/><path class="cls-1" d="M110,24a8.73,8.73,0,0,0-5.44-2.91l-2.84-.59-5.6-1.17a3.58,3.58,0,0,1-.45-.09,4.26,4.26,0,0,1-3-4.24V13.44L85,13.92v2.8a8.81,8.81,0,0,0,6,8.34l1.66.35.35.07,2.52.52,6.18,1.28a4.21,4.21,0,0,1,2.88,4.21v3.14A5.35,5.35,0,0,1,99.22,40H97.94a5.33,5.33,0,0,1-5.33-5.33V33a1.09,1.09,0,0,0-1.09-1.1H86.05A1.09,1.09,0,0,0,85,33v2.56a11.13,11.13,0,0,0,11.1,11.1h5a11.13,11.13,0,0,0,11.1-11.1V29.87A8.82,8.82,0,0,0,110,24Zm-8.29,3.27c.11,0,0,0,0,0Z"/><path class="cls-1" d="M101.69,27.29c.11,0,0,0,0,0Z"/><g id="GWS-4" data-name="GWS"><path class="cls-2" d="M40.54,2.08V17.24l-7.65.93V2.08A1.42,1.42,0,0,1,34.3.66h4.83A1.42,1.42,0,0,1,40.54,2.08Z"/><path class="cls-2" d="M60.12,2.08V15.59l-7.65.54v-14A1.42,1.42,0,0,1,53.88.66h4.83A1.42,1.42,0,0,1,60.12,2.08Z"/><path class="cls-2" d="M79.7,2.08V14.26l-7.65.51V2.08A1.42,1.42,0,0,1,73.46.66h4.83A1.42,1.42,0,0,1,79.7,2.08Z"/><path class="cls-2" d="M14.61,20.07h8.84c-.72.17-6.49,1.65-9.86,3.74V21.09A1,1,0,0,1,14.61,20.07Z"/><path class="cls-2" d="M27.24,11.1v4.44a1,1,0,0,1-1,1H20.6a1,1,0,0,1-1-1V12a5.33,5.33,0,0,0-5.33-5.32H13A5.32,5.32,0,0,0,7.66,12V27.58a92.27,92.27,0,0,0-7.66,7V11.1A11.14,11.14,0,0,1,11.1,0h5A11.14,11.14,0,0,1,27.24,11.1Z"/><path class="cls-2" d="M112.19,11.1v1.17l-7.65.44V12a5.32,5.32,0,0,0-5.32-5.32H97.94A5.33,5.33,0,0,0,92.61,12v1.41L85,13.92V11.1a11.36,11.36,0,0,1,3.26-7.84A11.08,11.08,0,0,1,96.06,0h5A11.13,11.13,0,0,1,112.19,11.1Z"/></g><path class="cls-1" d="M112.19,12.27v1.21a1.27,1.27,0,0,1-1.27,1.27h-5.11a1.27,1.27,0,0,1-1.27-1.27v-.77Z"/></g></g></g></svg>